<svg width="32" height="32" viewBox="0 0 32 32" fill="none" xmlns="http://www.w3.org/2000/svg">
<circle cx="16" cy="16" r="16" fill="#F9F9F9"/>
<path d="M22.16 8.91L23.08 9.83L20.39 12.52L19.47 11.6L22.16 8.91ZM22.17 6.5C21.91 6.5 21.66 6.6 21.46 6.79L18.34 9.91L16.41 8L15 9.41L16.42 10.83L7.5 19.75V24.5H12.25L21.17 15.58L22.59 17L24 15.59L22.08 13.67L25.2 10.55C25.6 10.15 25.6 9.52 25.21 9.13L22.87 6.79C22.67 6.6 22.42 6.5 22.17 6.5ZM11.42 22.5L9.5 20.58L17.56 12.52L19.48 14.44L11.42 22.5Z" fill="#0C8CE9"/>
</svg>
