<?xml version="1.0" standalone="no"?>
<!DOCTYPE svg PUBLIC "-//W3C//DTD SVG 20010904//EN"
 "http://www.w3.org/TR/2001/REC-SVG-20010904/DTD/svg10.dtd">
<svg version="1.0" xmlns="http://www.w3.org/2000/svg"
 width="700.000000pt" height="700.000000pt" viewBox="0 0 700.000000 700.000000"
 preserveAspectRatio="xMidYMid meet">
<metadata>
Created by potrace 1.14, written by Peter Selinger 2001-2017
</metadata>
<g transform="translate(0.000000,700.000000) scale(0.100000,-0.100000)"
fill="#000000" stroke="none">
<path d="M4785 5568 c-34 -9 -97 -67 -405 -374 l-365 -364 -95 96 c-52 52
-148 145 -213 206 l-118 112 -152 -152 -152 -152 155 -155 155 -155 -978 -978
-977 -977 0 -518 0 -517 517 0 518 0 977 977 978 978 155 -155 155 -155 152
153 153 152 -210 210 -210 210 366 367 c355 357 367 370 379 420 12 55 7 98
-17 148 -21 43 -560 582 -605 606 -47 24 -111 31 -163 17z m-27 -1015 l-293
-293 -102 102 -103 103 292 292 293 293 102 -102 103 -103 -292 -292z m-703
-503 l210 -210 -883 -883 -882 -882 -212 213 -213 212 880 880 c484 484 882
880 885 880 3 0 100 -95 215 -210z"/>
</g>
</svg>
